<svg width="91" height="34" viewBox="0 0 91 34" fill="none" xmlns="http://www.w3.org/2000/svg">
<g clip-path="url(#clip0_516_5113)">
<path d="M13.2153 20.153C12.7633 20.153 12.3912 19.9948 12.099 19.6798C11.8069 19.3647 11.6608 18.997 11.6608 18.5777C11.6608 18.1585 11.8069 17.7719 12.099 17.4644C12.3912 17.1569 12.7633 17.0038 13.2153 17.0038C13.6673 17.0038 14.0431 17.1581 14.3428 17.4644C14.6412 17.7719 14.791 18.1434 14.791 18.5777C14.791 19.012 14.6412 19.3836 14.3428 19.6911C14.0431 19.9986 13.6673 20.153 13.2153 20.153ZM11.9904 33.5444V22.3169C11.9904 22.1876 12.0953 22.0822 12.2239 22.0822H14.2566C14.3852 22.0822 14.4901 22.1876 14.4901 22.3169V33.5444C14.4901 33.6736 14.3852 33.7791 14.2566 33.7791H12.2239C12.0953 33.7791 11.9904 33.6736 11.9904 33.5444Z" fill="#F0F0FF"/>
<path d="M17.0922 33.5431V22.3156C17.0922 22.1863 17.197 22.0809 17.3257 22.0809H19.3584C19.487 22.0809 19.5919 22.1863 19.5919 22.3156V23.7804H19.723C19.8254 23.5745 20.0002 23.321 20.2499 23.0185C20.4984 22.7173 20.8455 22.4487 21.2912 22.2127C21.737 21.978 22.3039 21.86 22.9906 21.86C23.8534 21.86 24.5763 22.0583 25.1619 22.4562C25.7463 22.8528 26.1883 23.3838 26.4892 24.0452C26.7889 24.708 26.9387 25.436 26.9387 26.2305V33.5431C26.9387 33.6724 26.8338 33.7778 26.7052 33.7778H24.6725C24.5439 33.7778 24.439 33.6724 24.439 33.5431V26.4953C24.439 25.7887 24.2455 25.1925 23.8584 24.708C23.4713 24.2222 22.897 23.98 22.1365 23.98C21.5372 23.98 21.0515 24.1306 20.6782 24.4331C20.3048 24.7343 20.0314 25.1247 19.8553 25.6029C19.6805 26.0811 19.5919 26.5932 19.5919 27.1367V33.5443C19.5919 33.6736 19.487 33.7791 19.3584 33.7791H17.3257C17.197 33.7791 17.0922 33.6736 17.0922 33.5443V33.5431Z" fill="#F0F0FF"/>
<path d="M33.916 34C32.9946 34 32.2566 33.8305 31.701 33.4929C31.1454 33.154 30.7471 32.7021 30.5061 32.1361C30.2651 31.57 30.144 30.9549 30.144 30.2935V24.231C30.144 24.1657 30.0915 24.113 30.0266 24.113H28.3372C28.2086 24.113 28.1038 24.0076 28.1038 23.8783V22.3181C28.1038 22.1888 28.2086 22.0834 28.3372 22.0834H30.0266C30.0915 22.0834 30.144 22.0307 30.144 21.9654V19.4049C30.144 19.2756 30.2489 19.1702 30.3775 19.1702H32.4102C32.5388 19.1702 32.6437 19.2756 32.6437 19.4049V21.9654C32.6437 22.0307 32.6962 22.0834 32.7611 22.0834H35.1297C35.2583 22.0834 35.3632 22.1888 35.3632 22.3181V23.8783C35.3632 24.0076 35.2583 24.113 35.1297 24.113H32.7611C32.6962 24.113 32.6437 24.1657 32.6437 24.231V30.2495C32.6437 31.3528 33.2505 31.9051 34.4642 31.9051C34.7164 31.9051 35.0435 31.875 35.4456 31.816C35.5867 31.7946 35.714 31.9038 35.714 32.0482V33.6247C35.714 33.7402 35.6304 33.8393 35.5168 33.8569C34.8875 33.9535 34.3531 34.0025 33.916 34.0025V34Z" fill="#F0F0FF"/>
<path d="M42.4265 34C41.4464 34 40.6023 33.8268 39.8931 33.4816C39.1839 33.1364 38.5995 32.672 38.1388 32.0909C37.6781 31.5097 37.3347 30.8583 37.1074 30.1378C36.8802 29.4174 36.7678 28.6819 36.7678 27.9313C36.7678 27.1807 36.8777 26.4677 37.0962 25.746C37.316 25.0255 37.6518 24.3703 38.1051 23.7817C38.5583 23.193 39.1364 22.7261 39.8382 22.3797C40.5399 22.0345 41.3652 21.8613 42.3166 21.8613C43.3405 21.8613 44.2433 22.0935 45.0249 22.5566C45.8065 23.0198 46.4208 23.7039 46.8666 24.6088C47.3123 25.5138 47.5358 26.6359 47.5358 27.9752V28.4245C47.5358 28.5538 47.431 28.6593 47.3024 28.6593H39.4174C39.3487 28.6593 39.2938 28.7183 39.3 28.7873C39.3774 29.6308 39.6733 30.36 40.189 30.9763C40.7297 31.624 41.4751 31.9478 42.4253 31.9478C42.9659 31.9478 43.4117 31.8562 43.7625 31.6717C44.1134 31.4884 44.3843 31.2775 44.5741 31.0428C44.739 30.8382 44.8938 30.5885 45.0374 30.2947C45.0773 30.2132 45.1585 30.1604 45.2484 30.1604H47.1101C47.2686 30.1604 47.381 30.3173 47.3323 30.4692C47.2075 30.8571 47.0676 31.2022 46.9103 31.5072C46.713 31.8901 46.4308 32.2729 46.0662 32.6545C45.7004 33.0373 45.2184 33.3574 44.6191 33.6147C44.0198 33.872 43.2881 34.0013 42.4265 34.0013V34ZM39.4436 26.8932H44.9987C45.0661 26.8932 45.121 26.8342 45.116 26.7665C45.0411 25.8012 44.7402 25.0858 44.2145 24.6201C43.6664 24.1344 43.0259 23.8921 42.2954 23.8921C41.4763 23.8921 40.7971 24.1607 40.2552 24.6979C39.7395 25.2101 39.4311 25.8979 39.3262 26.7627C39.3175 26.833 39.3737 26.8945 39.4436 26.8945V26.8932Z" fill="#F0F0FF"/>
<path d="M49.6049 33.5431L49.6261 17.2397C49.6261 17.1104 49.731 17.005 49.8596 17.005H51.8711C51.9997 17.005 52.1046 17.1104 52.1046 17.2397V33.5431C52.1046 33.6724 51.9997 33.7778 51.8711 33.7778H49.8383C49.7097 33.7778 49.6049 33.6724 49.6049 33.5418V33.5431Z" fill="#F0F0FF"/>
<path d="M54.4207 33.5431L54.4419 17.2397C54.4419 17.1104 54.5468 17.005 54.6754 17.005H56.6869C56.8155 17.005 56.9204 17.1104 56.9204 17.2397V33.5431C56.9204 33.6724 56.8155 33.7778 56.6869 33.7778H54.6541C54.5255 33.7778 54.4207 33.6724 54.4207 33.5418V33.5431Z" fill="#F0F0FF"/>
<path d="M64.527 34C63.5468 34 62.7028 33.8268 61.9936 33.4816C61.2843 33.1364 60.7 32.672 60.2393 32.0909C59.7785 31.5097 59.4352 30.8583 59.2079 30.1378C58.9807 29.4174 58.8683 28.6819 58.8683 27.9313C58.8683 27.1807 58.9782 26.4677 59.1967 25.746C59.4164 25.0255 59.7523 24.3703 60.2055 23.7817C60.6588 23.193 61.2369 22.7261 61.9386 22.3797C62.6403 22.0345 63.4657 21.8613 64.4171 21.8613C65.441 21.8613 66.3437 22.0935 67.1253 22.5566C67.907 23.0198 68.5213 23.7039 68.967 24.6088C69.4128 25.5138 69.6363 26.6359 69.6363 27.9752V28.4245C69.6363 28.5538 69.5314 28.6593 69.4028 28.6593H61.5178C61.4492 28.6593 61.3942 28.7183 61.4005 28.7873C61.4779 29.6308 61.7738 30.36 62.2895 30.9763C62.8301 31.624 63.5756 31.9478 64.5257 31.9478C65.0664 31.9478 65.5121 31.8562 65.863 31.6717C66.2139 31.4884 66.4848 31.2775 66.6746 31.0428C66.8394 30.8382 66.9942 30.5885 67.1378 30.2947C67.1778 30.2132 67.259 30.1604 67.3489 30.1604H69.2105C69.3691 30.1604 69.4815 30.3173 69.4328 30.4692C69.3079 30.8571 69.1681 31.2022 69.0108 31.5072C68.8135 31.8901 68.5313 32.2729 68.1667 32.6545C67.8008 33.0373 67.3189 33.3574 66.7195 33.6147C66.1202 33.872 65.3885 34.0013 64.527 34.0013V34ZM61.5441 26.8932H67.0991C67.1666 26.8932 67.2215 26.8342 67.2165 26.7665C67.1416 25.8012 66.8407 25.0858 66.315 24.6201C65.7893 24.1545 65.1263 23.8921 64.3959 23.8921C63.5768 23.8921 62.8976 24.1607 62.3557 24.6979C61.84 25.2101 61.5316 25.8979 61.4267 26.7627C61.4179 26.833 61.4741 26.8945 61.5441 26.8945V26.8932Z" fill="#F0F0FF"/>
<path d="M77.1091 34C76.129 34 75.2737 33.8268 74.5432 33.4816C73.8116 33.1364 73.206 32.672 72.7228 32.0909C72.2408 31.5097 71.8787 30.8583 71.6377 30.1378C71.3967 29.4174 71.2756 28.6818 71.2756 27.9313C71.2756 27.1807 71.3967 26.4451 71.6377 25.7247C71.8787 25.0042 72.2408 24.3528 72.7228 23.7716C73.2047 23.1905 73.8116 22.7273 74.5432 22.3809C75.2737 22.0357 76.129 21.8625 77.1091 21.8625C78.0893 21.8625 78.8747 22.0056 79.5102 22.293C80.1458 22.5805 80.6539 22.9369 81.0348 23.3637C81.4144 23.7905 81.7003 24.2172 81.8901 24.644C82.0486 25.0004 82.1773 25.4134 82.2746 25.8816C82.3046 26.0284 82.1947 26.1665 82.0461 26.1665H80.1295C80.0296 26.1665 79.941 26.1 79.9098 26.0046C79.7887 25.6343 79.6438 25.3205 79.4778 25.0632C79.288 24.7695 79.0058 24.5109 78.6337 24.2913C78.2616 24.0716 77.7597 23.9599 77.1316 23.9599C76.3862 23.9599 75.7644 24.1469 75.2674 24.5222C74.7705 24.8975 74.3934 25.387 74.1374 25.9895C73.8815 26.5932 73.7541 27.2397 73.7541 27.9313C73.7541 28.6229 73.8815 29.2705 74.1374 29.873C74.3934 30.4767 74.7692 30.965 75.2674 31.3403C75.7644 31.7156 76.3862 31.9026 77.1316 31.9026C77.7597 31.9026 78.2604 31.7922 78.6337 31.5712C79.007 31.3503 79.288 31.093 79.4778 30.7993C79.6438 30.542 79.7887 30.2282 79.9098 29.8579C79.941 29.7613 80.0284 29.696 80.1295 29.696H82.0461C82.1947 29.696 82.3059 29.8341 82.2746 29.9809C82.1773 30.4504 82.0486 30.8621 81.8901 31.2185C81.7003 31.6453 81.4144 32.0721 81.0348 32.4988C80.6539 32.9256 80.147 33.282 79.5102 33.5695C78.8747 33.8569 78.0743 34 77.1091 34Z" fill="#F0F0FF"/>
<path d="M89.2019 34C88.2805 34 87.5425 33.8305 86.9869 33.4929C86.4313 33.154 86.033 32.7021 85.792 32.1361C85.551 31.57 85.4299 30.9549 85.4299 30.2935V24.231C85.4299 24.1657 85.3774 24.113 85.3125 24.113H83.6231C83.4945 24.113 83.3896 24.0076 83.3896 23.8783V22.3181C83.3896 22.1888 83.4945 22.0834 83.6231 22.0834H85.3125C85.3774 22.0834 85.4299 22.0307 85.4299 21.9654V19.4049C85.4299 19.2756 85.5348 19.1702 85.6634 19.1702H87.6961C87.8247 19.1702 87.9296 19.2756 87.9296 19.4049V21.9654C87.9296 22.0307 87.982 22.0834 88.047 22.0834H90.4156C90.5442 22.0834 90.6491 22.1888 90.6491 22.3181V23.8783C90.6491 24.0076 90.5442 24.113 90.4156 24.113H88.047C87.982 24.113 87.9296 24.1657 87.9296 24.231V30.2495C87.9296 31.3528 88.5364 31.9051 89.7501 31.9051C90.0023 31.9051 90.3294 31.875 90.7315 31.816C90.8726 31.7946 90.9999 31.9038 90.9999 32.0482V33.6247C90.9999 33.7402 90.9163 33.8393 90.8026 33.8569C90.1733 33.9535 89.6389 34.0025 89.2019 34.0025V34Z" fill="#F0F0FF"/>
<path d="M15.3993 14.4922C16.9987 14.4922 18.3797 13.8307 19.024 12.4688C19.0877 12.3333 19.2025 12.2304 19.3436 12.1802C20.9656 11.6065 22.128 10.0514 22.128 8.22386C22.128 6.31224 20.8569 4.7006 19.1201 4.19477C18.9853 4.15586 18.8729 4.06424 18.7992 3.94374C17.3421 1.57775 14.7412 0 11.7708 0C9.46087 0 7.37194 0.953928 5.87236 2.49276C5.74625 2.62205 5.5652 2.67853 5.38665 2.65343C5.2106 2.62832 5.02955 2.61577 4.846 2.61577C2.69964 2.61577 0.959079 4.36673 0.959079 6.52688C0.959079 6.60219 0.961576 6.67624 0.965322 6.7503C0.972814 6.87707 0.939101 7.00384 0.865433 7.10676C-0.0797652 8.43348 -0.35446 10.2773 0.557026 12.1387C1.26873 13.5935 2.76457 14.4909 4.37528 14.4909H5.17689C5.31174 14.4909 5.44284 14.5399 5.54523 14.629L7.96878 16.764C8.56562 17.2899 9.49208 16.8607 9.48834 16.0624V14.8298C9.48834 14.6428 9.63817 14.4909 9.82421 14.4909H15.3993V14.4922Z" fill="url(#paint0_linear_516_5113)"/>
</g>
<defs>
<linearGradient id="paint0_linear_516_5113" x1="3.55619" y1="15.4637" x2="17.3804" y2="1.71166" gradientUnits="userSpaceOnUse">
<stop stop-color="#AD29FF"/>
<stop offset="0.13" stop-color="#A72CFF"/>
<stop offset="0.28" stop-color="#9838FF"/>
<stop offset="0.46" stop-color="#7E4BFF"/>
<stop offset="0.65" stop-color="#5B65FF"/>
<stop offset="0.84" stop-color="#2D86FF"/>
<stop offset="1" stop-color="#03A6FF"/>
</linearGradient>
<clipPath id="clip0_516_5113">
<rect width="91" height="34" fill="white"/>
</clipPath>
</defs>
</svg>
